P1
# Affiche 0
5 3
1 1 1
1 0 1
1 0 1
1 0 1
1 1 1
