P3
#imagecouleur5
9 9
255
255 0 0  0 255 0  0 255 0  0 255 0  0 0 255  0 255 0  0 255 0  0 255 0  255 0 0
0 255 0  255 0 0  0 255 0  0 255 0  0 0 255  0 255 0  0 255 0  255 0 0  0 255 0
0 255 0  0 255 0  255 0 0  0 255 0  0 0 255  0 255 0  255 0 0  0 255 0  0 255 0
0 255 0  0 255 0  0 255 0  255 0 0  0 0 255  255 0 0  0 255 0  0 255 0  0 255 0
0 0 255  0 0 255  0 0 255  0 0 255  0 0 255  0 0 255  0 0 255  0 0 255  0 0 255
0 255 0  0 255 0  0 255 0  255 0 0  0 0 255  255 0 0  0 255 0  0 255 0  0 255 0
0 255 0  0 255 0  255 0 0  0 255 0  0 0 255  0 255 0  255 0 0  0 255 0  0 255 0
0 255 0  255 0 0  0 255 0  0 255 0  0 0 255  0 255 0  0 255 0  255 0 0  0 255 0
255 0 0  0 255 0  0 255 0  0 255 0  0 0 255  0 255 0  0 255 0  0 255 0  255 0 0