P1
# Affiche 1
5 3
0 0 1
0 0 1
0 0 1
0 0 1
0 0 1
